<svg width="24" height="24" viewBox="0 0 24 24" fill="none" xmlns="http://www.w3.org/2000/svg">
<path fill-rule="evenodd" clip-rule="evenodd" d="M11 7.23438C9.34315 7.23438 8 8.57752 8 10.2344V13.7622C8 14.228 8.10844 14.6873 8.31672 15.1039C9.05769 16.5858 10.8597 17.1865 12.3416 16.4455L15.8695 14.6816C16.4501 14.3913 16.9209 13.9205 17.2111 13.3399C17.9521 11.858 17.3514 10.056 15.8695 9.31503L12.3416 7.55109C11.9251 7.34281 11.4657 7.23438 11 7.23438ZM11 9.23438C11.1552 9.23438 11.3084 9.27052 11.4472 9.33995L14.9751 11.1039C15.4691 11.3509 15.6693 11.9515 15.4223 12.4455C15.3255 12.639 15.1686 12.796 14.9751 12.8927L11.4472 14.6567C10.9532 14.9037 10.3526 14.7034 10.1056 14.2095C10.0361 14.0706 10 13.9175 10 13.7622V10.2344C10 9.68209 10.4477 9.23438 11 9.23438Z" fill="#8E8E8E"/>
<path d="M21.6551 18.5H2.34484C2.15441 18.5 2 18.3468 2 18.1579V5.84212C2 5.65319 2.15441 5.5 2.34484 5.5H21.6552C21.8456 5.5 22 5.65319 22 5.84212V18.1579C22 18.3468 21.8455 18.5 21.6551 18.5Z" fill="#F5F5F5"/>
<path d="M22 6.50005H2V5.84212C2 5.65319 2.15441 5.5 2.34484 5.5H21.6552C21.8456 5.5 22 5.65319 22 5.84212L22 6.50005Z" fill="#FF4B55"/>
<path d="M22 9.5H2V10.5H22V9.5Z" fill="#FF4B55"/>
<path d="M22 7.5H2V8.50001H22V7.5Z" fill="#FF4B55"/>
<path d="M22 12.5H2.34484C2.15441 12.5 2 12.3469 2 12.1579V11.5H22V12.5Z" fill="#FF4B55"/>
<path d="M22 15.5H2V16.5H22V15.5Z" fill="#FF4B55"/>
<path d="M21.6551 18.5H2.34484C2.15441 18.5 2 18.3468 2 18.1579V17.5H22V18.1579C22 18.3469 21.8455 18.5 21.6551 18.5Z" fill="#FF4B55"/>
<path d="M22 13.5H2V14.5H22V13.5Z" fill="#FF4B55"/>
<path d="M10.9655 5.5H2.34484C2.15441 5.5 2 5.65316 2 5.84208V12.1578C2 12.3468 2.15441 12.4999 2.34484 12.4999H10.9655C11.156 12.4999 11.3104 12.3468 11.3104 12.1578V5.84208C11.3103 5.65316 11.1559 5.5 10.9655 5.5Z" fill="#41479B"/>
<path d="M2.97017 6.28377L3.0465 6.51087L3.28779 6.51269C3.31904 6.51297 3.33197 6.55249 3.30685 6.5709L3.11275 6.71313L3.18556 6.94135C3.19501 6.97088 3.16107 6.99538 3.13564 6.97732L2.93935 6.83815L2.74306 6.97736C2.71763 6.99538 2.68376 6.97092 2.69314 6.94139L2.76595 6.71317L2.57185 6.57094C2.54673 6.55249 2.55966 6.513 2.59091 6.51273L2.8322 6.51091L2.90853 6.28381C2.91837 6.25436 2.96025 6.25436 2.97017 6.28377Z" fill="#F5F5F5"/>
<path d="M2.97017 7.47125L3.0465 7.69834L3.28779 7.70017C3.31904 7.70044 3.33197 7.73997 3.30685 7.75837L3.11275 7.9006L3.18556 8.12882C3.19501 8.15835 3.16107 8.18285 3.13564 8.16479L2.93935 8.02562L2.74306 8.16483C2.71763 8.18285 2.68376 8.15839 2.69314 8.12886L2.76595 7.90064L2.57185 7.75841C2.54673 7.73997 2.55966 7.70048 2.59091 7.7002L2.8322 7.69838L2.90853 7.47128C2.91837 7.44187 2.96025 7.44187 2.97017 7.47125Z" fill="#F5F5F5"/>
<path d="M2.97017 8.65875L3.0465 8.88584L3.28779 8.88767C3.31904 8.88794 3.33197 8.92747 3.30685 8.94587L3.11275 9.0881L3.18556 9.31632C3.19501 9.34585 3.16107 9.37035 3.13564 9.35229L2.93935 9.21312L2.74306 9.35233C2.71763 9.37035 2.68376 9.34589 2.69314 9.31636L2.76595 9.08814L2.57185 8.94591C2.54673 8.92747 2.55966 8.88798 2.59091 8.8877L2.8322 8.88588L2.90853 8.65878C2.91837 8.62937 2.96025 8.62937 2.97017 8.65875Z" fill="#F5F5F5"/>
<path d="M2.97017 9.84627L3.0465 10.0734L3.28779 10.0752C3.31904 10.0755 3.33197 10.115 3.30685 10.1334L3.11275 10.2756L3.18556 10.5039C3.19501 10.5334 3.16107 10.5579 3.13564 10.5398L2.93935 10.4007L2.74306 10.5399C2.71763 10.5579 2.68376 10.5334 2.69314 10.5039L2.76595 10.2757L2.57185 10.1334C2.54673 10.115 2.55966 10.0755 2.59091 10.0752L2.8322 10.0734L2.90853 9.84631C2.91837 9.81686 2.96025 9.81686 2.97017 9.84627Z" fill="#F5F5F5"/>
<path d="M2.97017 11.0377L3.0465 11.2648L3.28779 11.2666C3.31904 11.2669 3.33197 11.3064 3.30685 11.3248L3.11275 11.4671L3.18556 11.6953C3.19501 11.7248 3.16107 11.7493 3.13564 11.7313L2.93935 11.5921L2.74306 11.7313C2.71763 11.7493 2.68376 11.7249 2.69314 11.6953L2.76595 11.4671L2.57185 11.3249C2.54673 11.3064 2.55966 11.2669 2.59091 11.2667L2.8322 11.2648L2.90853 11.0377C2.91837 11.0083 2.96025 11.0083 2.97017 11.0377Z" fill="#F5F5F5"/>
<path d="M3.89986 6.86578L3.97618 7.09288L4.21747 7.0947C4.24872 7.09497 4.26165 7.1345 4.23654 7.15291L4.04243 7.29514L4.11525 7.52336C4.1247 7.55289 4.09076 7.57738 4.06533 7.55932L3.86904 7.42012L3.67275 7.55932C3.64732 7.57734 3.61345 7.55289 3.62283 7.52336L3.69564 7.29514L3.50154 7.15291C3.47642 7.13446 3.48935 7.09497 3.5206 7.0947L3.76189 7.09288L3.83822 6.86578C3.84802 6.83641 3.88997 6.83641 3.89986 6.86578Z" fill="#F5F5F5"/>
<path d="M3.89986 8.05331L3.97618 8.28041L4.21747 8.28223C4.24872 8.2825 4.26165 8.32203 4.23654 8.34044L4.04243 8.48267L4.11525 8.71089C4.1247 8.74042 4.09076 8.76491 4.06533 8.74685L3.86904 8.60765L3.67275 8.74685C3.64732 8.76487 3.61345 8.74046 3.62283 8.71089L3.69564 8.48267L3.50154 8.34044C3.47642 8.32199 3.48935 8.2825 3.5206 8.28223L3.76189 8.28041L3.83822 8.05331C3.84802 8.0239 3.88997 8.0239 3.89986 8.05331Z" fill="#F5F5F5"/>
<path d="M3.89986 9.24081L3.97618 9.46791L4.21747 9.46973C4.24872 9.47 4.26165 9.50953 4.23654 9.52794L4.04243 9.67017L4.11525 9.89839C4.1247 9.92792 4.09076 9.95241 4.06533 9.93435L3.86904 9.79515L3.67275 9.93435C3.64732 9.95237 3.61345 9.92792 3.62283 9.89839L3.69564 9.67017L3.50154 9.52794C3.47642 9.50949 3.48935 9.47 3.5206 9.46973L3.76189 9.46791L3.83822 9.24081C3.84802 9.2114 3.88997 9.2114 3.89986 9.24081Z" fill="#F5F5F5"/>
<path d="M3.89986 10.4283L3.97618 10.6554L4.21747 10.6572C4.24872 10.6575 4.26165 10.697 4.23654 10.7154L4.04243 10.8576L4.11525 11.0859C4.1247 11.1154 4.09076 11.1399 4.06533 11.1218L3.86904 10.9826L3.67275 11.1218C3.64732 11.1398 3.61345 11.1154 3.62283 11.0859L3.69564 10.8576L3.50154 10.7154C3.47642 10.697 3.48935 10.6575 3.5206 10.6572L3.76189 10.6554L3.83822 10.4283C3.84802 10.3989 3.88997 10.3989 3.89986 10.4283Z" fill="#F5F5F5"/>
<path d="M4.82954 6.28378L4.90587 6.51088L5.14716 6.5127C5.17841 6.51297 5.19134 6.5525 5.16622 6.57091L4.97212 6.71314L5.04493 6.94136C5.05439 6.97089 5.02044 6.99538 4.99501 6.97732L4.79872 6.83812L4.60244 6.97732C4.57701 6.99534 4.54314 6.97089 4.55251 6.94136L4.62533 6.71314L4.43122 6.57091C4.40611 6.55246 4.41904 6.51297 4.45029 6.5127L4.69158 6.51088L4.7679 6.28378C4.77775 6.25437 4.81966 6.25437 4.82954 6.28378Z" fill="#F5F5F5"/>
<path d="M4.82954 7.47125L4.90587 7.69835L5.14716 7.70017C5.17841 7.70044 5.19134 7.73997 5.16622 7.75838L4.97212 7.90061L5.04493 8.12883C5.05439 8.15836 5.02044 8.18285 4.99501 8.16479L4.79872 8.02559L4.60244 8.16479C4.57701 8.18281 4.54314 8.15836 4.55251 8.12883L4.62533 7.90061L4.43122 7.75838C4.40611 7.73993 4.41904 7.70044 4.45029 7.70017L4.69158 7.69835L4.7679 7.47125C4.77775 7.44187 4.81966 7.44187 4.82954 7.47125Z" fill="#F5F5F5"/>
<path d="M4.82954 8.65875L4.90587 8.88585L5.14716 8.88767C5.17841 8.88794 5.19134 8.92747 5.16622 8.94588L4.97212 9.08811L5.04493 9.31633C5.05439 9.34586 5.02044 9.37035 4.99501 9.35229L4.79872 9.21309L4.60244 9.35229C4.57701 9.37031 4.54314 9.34586 4.55251 9.31633L4.62533 9.08811L4.43122 8.94588C4.40611 8.92743 4.41904 8.88794 4.45029 8.88767L4.69158 8.88585L4.7679 8.65875C4.77775 8.62937 4.81966 8.62937 4.82954 8.65875Z" fill="#F5F5F5"/>
<path d="M4.82954 9.84628L4.90587 10.0734L5.14716 10.0752C5.17841 10.0755 5.19134 10.115 5.16622 10.1334L4.97212 10.2756L5.04493 10.5039C5.05439 10.5334 5.02044 10.5579 4.99501 10.5398L4.79872 10.4006L4.60244 10.5398C4.57701 10.5578 4.54314 10.5334 4.55251 10.5039L4.62533 10.2756L4.43122 10.1334C4.40611 10.115 4.41904 10.0755 4.45029 10.0752L4.69158 10.0734L4.7679 9.84628C4.77775 9.81687 4.81966 9.81687 4.82954 9.84628Z" fill="#F5F5F5"/>
<path d="M4.82954 11.0377L4.90587 11.2648L5.14716 11.2666C5.17841 11.2669 5.19134 11.3064 5.16622 11.3248L4.97212 11.4671L5.04493 11.6953C5.05439 11.7248 5.02044 11.7493 4.99501 11.7313L4.79872 11.5921L4.60244 11.7313C4.57701 11.7493 4.54314 11.7248 4.55251 11.6953L4.62533 11.4671L4.43122 11.3248C4.40611 11.3064 4.41904 11.2669 4.45029 11.2666L4.69158 11.2648L4.7679 11.0377C4.77775 11.0083 4.81966 11.0083 4.82954 11.0377Z" fill="#F5F5F5"/>
<path d="M5.75923 6.86578L5.83556 7.09288L6.07685 7.0947C6.1081 7.09497 6.12103 7.1345 6.09591 7.15291L5.90181 7.29514L5.97462 7.52336C5.98408 7.55289 5.95013 7.57738 5.9247 7.55932L5.72841 7.42012L5.53212 7.55932C5.50669 7.57734 5.47283 7.55289 5.4822 7.52336L5.55501 7.29514L5.36091 7.15291C5.3358 7.13446 5.34872 7.09497 5.37997 7.0947L5.62126 7.09288L5.69759 6.86578C5.7074 6.83641 5.74935 6.83641 5.75923 6.86578Z" fill="#F5F5F5"/>
<path d="M5.75923 8.05331L5.83556 8.28041L6.07685 8.28223C6.1081 8.2825 6.12103 8.32203 6.09591 8.34044L5.90181 8.48267L5.97462 8.71089C5.98408 8.74042 5.95013 8.76491 5.9247 8.74685L5.72841 8.60765L5.53212 8.74685C5.50669 8.76487 5.47283 8.74046 5.4822 8.71089L5.55501 8.48267L5.36091 8.34044C5.3358 8.32199 5.34872 8.2825 5.37997 8.28223L5.62126 8.28041L5.69759 8.05331C5.7074 8.0239 5.74935 8.0239 5.75923 8.05331Z" fill="#F5F5F5"/>
<path d="M5.75923 9.24081L5.83556 9.46791L6.07685 9.46973C6.1081 9.47 6.12103 9.50953 6.09591 9.52794L5.90181 9.67017L5.97462 9.89839C5.98408 9.92792 5.95013 9.95241 5.9247 9.93435L5.72841 9.79515L5.53212 9.93435C5.50669 9.95237 5.47283 9.92792 5.4822 9.89839L5.55501 9.67017L5.36091 9.52794C5.3358 9.50949 5.34872 9.47 5.37997 9.46973L5.62126 9.46791L5.69759 9.24081C5.7074 9.2114 5.74935 9.2114 5.75923 9.24081Z" fill="#F5F5F5"/>
<path d="M5.75923 10.4283L5.83556 10.6554L6.07685 10.6572C6.1081 10.6575 6.12103 10.697 6.09591 10.7154L5.90181 10.8576L5.97462 11.0859C5.98408 11.1154 5.95013 11.1399 5.9247 11.1218L5.72841 10.9826L5.53212 11.1218C5.50669 11.1398 5.47283 11.1154 5.4822 11.0859L5.55501 10.8576L5.36091 10.7154C5.3358 10.697 5.34872 10.6575 5.37997 10.6572L5.62126 10.6554L5.69759 10.4283C5.7074 10.3989 5.74935 10.3989 5.75923 10.4283Z" fill="#F5F5F5"/>
<path d="M6.68896 6.28378L6.76529 6.51088L7.00658 6.5127C7.03783 6.51297 7.05075 6.5525 7.02564 6.57091L6.83154 6.71314L6.90435 6.94136C6.9138 6.97089 6.87986 6.99538 6.85443 6.97732L6.6581 6.83812L6.46181 6.97732C6.43638 6.99534 6.40251 6.97089 6.41189 6.94136L6.4847 6.71314L6.2906 6.57091C6.26548 6.55246 6.27841 6.51297 6.30966 6.5127L6.55095 6.51088L6.62728 6.28378C6.63716 6.25437 6.67908 6.25437 6.68896 6.28378Z" fill="#F5F5F5"/>
<path d="M6.68896 7.47125L6.76529 7.69835L7.00658 7.70017C7.03783 7.70044 7.05075 7.73997 7.02564 7.75838L6.83154 7.90061L6.90435 8.12883C6.9138 8.15836 6.87986 8.18285 6.85443 8.16479L6.6581 8.02559L6.46181 8.16479C6.43638 8.18281 6.40251 8.15836 6.41189 8.12883L6.4847 7.90061L6.2906 7.75838C6.26548 7.73993 6.27841 7.70044 6.30966 7.70017L6.55095 7.69835L6.62728 7.47125C6.63716 7.44187 6.67908 7.44187 6.68896 7.47125Z" fill="#F5F5F5"/>
<path d="M6.68896 8.65875L6.76529 8.88585L7.00658 8.88767C7.03783 8.88794 7.05075 8.92747 7.02564 8.94588L6.83154 9.08811L6.90435 9.31633C6.9138 9.34586 6.87986 9.37035 6.85443 9.35229L6.6581 9.21309L6.46181 9.35229C6.43638 9.37031 6.40251 9.34586 6.41189 9.31633L6.4847 9.08811L6.2906 8.94588C6.26548 8.92743 6.27841 8.88794 6.30966 8.88767L6.55095 8.88585L6.62728 8.65875C6.63716 8.62937 6.67908 8.62937 6.68896 8.65875Z" fill="#F5F5F5"/>
<path d="M6.68896 9.84628L6.76529 10.0734L7.00658 10.0752C7.03783 10.0755 7.05075 10.115 7.02564 10.1334L6.83154 10.2756L6.90435 10.5039C6.9138 10.5334 6.87986 10.5579 6.85443 10.5398L6.6581 10.4006L6.46181 10.5398C6.43638 10.5578 6.40251 10.5334 6.41189 10.5039L6.4847 10.2756L6.2906 10.1334C6.26548 10.115 6.27841 10.0755 6.30966 10.0752L6.55095 10.0734L6.62728 9.84628C6.63716 9.81687 6.67908 9.81687 6.68896 9.84628Z" fill="#F5F5F5"/>
<path d="M6.68896 11.0377L6.76529 11.2648L7.00658 11.2666C7.03783 11.2669 7.05075 11.3064 7.02564 11.3248L6.83154 11.4671L6.90435 11.6953C6.9138 11.7248 6.87986 11.7493 6.85443 11.7313L6.6581 11.5921L6.46181 11.7313C6.43638 11.7493 6.40251 11.7248 6.41189 11.6953L6.4847 11.4671L6.2906 11.3248C6.26548 11.3064 6.27841 11.2669 6.30966 11.2666L6.55095 11.2648L6.62728 11.0377C6.63716 11.0083 6.67908 11.0083 6.68896 11.0377Z" fill="#F5F5F5"/>
<path d="M7.61861 6.86578L7.69493 7.09288L7.93622 7.0947C7.96747 7.09497 7.9804 7.1345 7.95529 7.15291L7.76118 7.29514L7.834 7.52336C7.84345 7.55289 7.8095 7.57738 7.78408 7.55932L7.58779 7.42012L7.3915 7.55932C7.36607 7.57734 7.3322 7.55289 7.34158 7.52336L7.41439 7.29514L7.22029 7.15291C7.19517 7.13446 7.2081 7.09497 7.23935 7.0947L7.48064 7.09288L7.55697 6.86578C7.56685 6.83641 7.60872 6.83641 7.61861 6.86578Z" fill="#F5F5F5"/>
<path d="M7.61861 8.05331L7.69493 8.28041L7.93622 8.28223C7.96747 8.2825 7.9804 8.32203 7.95529 8.34044L7.76118 8.48267L7.834 8.71089C7.84345 8.74042 7.8095 8.76491 7.78408 8.74685L7.58779 8.60765L7.3915 8.74685C7.36607 8.76487 7.3322 8.74046 7.34158 8.71089L7.41439 8.48267L7.22029 8.34044C7.19517 8.32199 7.2081 8.2825 7.23935 8.28223L7.48064 8.28041L7.55697 8.05331C7.56685 8.0239 7.60872 8.0239 7.61861 8.05331Z" fill="#F5F5F5"/>
<path d="M7.61861 9.24081L7.69493 9.46791L7.93622 9.46973C7.96747 9.47 7.9804 9.50953 7.95529 9.52794L7.76118 9.67017L7.834 9.89839C7.84345 9.92792 7.8095 9.95241 7.78408 9.93435L7.58779 9.79515L7.3915 9.93435C7.36607 9.95237 7.3322 9.92792 7.34158 9.89839L7.41439 9.67017L7.22029 9.52794C7.19517 9.50949 7.2081 9.47 7.23935 9.46973L7.48064 9.46791L7.55697 9.24081C7.56685 9.2114 7.60872 9.2114 7.61861 9.24081Z" fill="#F5F5F5"/>
<path d="M7.61861 10.4283L7.69493 10.6554L7.93622 10.6572C7.96747 10.6575 7.9804 10.697 7.95529 10.7154L7.76118 10.8576L7.834 11.0859C7.84345 11.1154 7.8095 11.1399 7.78408 11.1218L7.58779 10.9826L7.3915 11.1218C7.36607 11.1398 7.3322 11.1154 7.34158 11.0859L7.41439 10.8576L7.22029 10.7154C7.19517 10.697 7.2081 10.6575 7.23935 10.6572L7.48064 10.6554L7.55697 10.4283C7.56685 10.3989 7.60872 10.3989 7.61861 10.4283Z" fill="#F5F5F5"/>
<path d="M8.54829 6.28378L8.62462 6.51088L8.86591 6.5127C8.89716 6.51297 8.91009 6.5525 8.88497 6.57091L8.69087 6.71314L8.76368 6.94136C8.77314 6.97089 8.73919 6.99538 8.71376 6.97732L8.51747 6.83812L8.32119 6.97732C8.29576 6.99534 8.26189 6.97089 8.27126 6.94136L8.34408 6.71314L8.14998 6.57091C8.12486 6.55246 8.13779 6.51297 8.16904 6.5127L8.41033 6.51088L8.48665 6.28378C8.49646 6.25437 8.53841 6.25437 8.54829 6.28378Z" fill="#F5F5F5"/>
<path d="M8.54829 7.47125L8.62462 7.69835L8.86591 7.70017C8.89716 7.70044 8.91009 7.73997 8.88497 7.75838L8.69087 7.90061L8.76368 8.12883C8.77314 8.15836 8.73919 8.18285 8.71376 8.16479L8.51747 8.02559L8.32119 8.16479C8.29576 8.18281 8.26189 8.15836 8.27126 8.12883L8.34408 7.90061L8.14998 7.75838C8.12486 7.73993 8.13779 7.70044 8.16904 7.70017L8.41033 7.69835L8.48665 7.47125C8.49646 7.44187 8.53841 7.44187 8.54829 7.47125Z" fill="#F5F5F5"/>
<path d="M8.54829 8.65875L8.62462 8.88585L8.86591 8.88767C8.89716 8.88794 8.91009 8.92747 8.88497 8.94588L8.69087 9.08811L8.76368 9.31633C8.77314 9.34586 8.73919 9.37035 8.71376 9.35229L8.51747 9.21309L8.32119 9.35229C8.29576 9.37031 8.26189 9.34586 8.27126 9.31633L8.34408 9.08811L8.14998 8.94588C8.12486 8.92743 8.13779 8.88794 8.16904 8.88767L8.41033 8.88585L8.48665 8.65875C8.49646 8.62937 8.53841 8.62937 8.54829 8.65875Z" fill="#F5F5F5"/>
<path d="M8.54829 9.84628L8.62462 10.0734L8.86591 10.0752C8.89716 10.0755 8.91009 10.115 8.88497 10.1334L8.69087 10.2756L8.76368 10.5039C8.77314 10.5334 8.73919 10.5579 8.71376 10.5398L8.51747 10.4006L8.32119 10.5398C8.29576 10.5578 8.26189 10.5334 8.27126 10.5039L8.34408 10.2756L8.14998 10.1334C8.12486 10.115 8.13779 10.0755 8.16904 10.0752L8.41033 10.0734L8.48665 9.84628C8.49646 9.81687 8.53841 9.81687 8.54829 9.84628Z" fill="#F5F5F5"/>
<path d="M8.54829 11.0377L8.62462 11.2648L8.86591 11.2666C8.89716 11.2669 8.91009 11.3064 8.88497 11.3248L8.69087 11.4671L8.76368 11.6953C8.77314 11.7248 8.73919 11.7493 8.71376 11.7313L8.51747 11.5921L8.32119 11.7313C8.29576 11.7493 8.26189 11.7248 8.27126 11.6953L8.34408 11.4671L8.14998 11.3248C8.12486 11.3064 8.13779 11.2669 8.16904 11.2666L8.41033 11.2648L8.48665 11.0377C8.49646 11.0083 8.53841 11.0083 8.54829 11.0377Z" fill="#F5F5F5"/>
<path d="M9.47798 6.86578L9.55431 7.09288L9.7956 7.0947C9.82685 7.09497 9.83978 7.1345 9.81466 7.15291L9.62056 7.29514L9.69337 7.52336C9.70283 7.55289 9.66888 7.57738 9.64345 7.55932L9.44716 7.42012L9.25087 7.55932C9.22544 7.57734 9.19158 7.55289 9.20095 7.52336L9.27376 7.29514L9.07966 7.15291C9.05455 7.13446 9.06747 7.09497 9.09872 7.0947L9.34001 7.09288L9.41634 6.86578C9.42619 6.83641 9.46814 6.83641 9.47798 6.86578Z" fill="#F5F5F5"/>
<path d="M9.47798 8.05331L9.55431 8.28041L9.7956 8.28223C9.82685 8.2825 9.83978 8.32203 9.81466 8.34044L9.62056 8.48267L9.69337 8.71089C9.70283 8.74042 9.66888 8.76491 9.64345 8.74685L9.44716 8.60765L9.25087 8.74685C9.22544 8.76487 9.19158 8.74046 9.20095 8.71089L9.27376 8.48267L9.07966 8.34044C9.05455 8.32199 9.06747 8.2825 9.09872 8.28223L9.34001 8.28041L9.41634 8.05331C9.42619 8.0239 9.46814 8.0239 9.47798 8.05331Z" fill="#F5F5F5"/>
<path d="M9.47798 9.24081L9.55431 9.46791L9.7956 9.46973C9.82685 9.47 9.83978 9.50953 9.81466 9.52794L9.62056 9.67017L9.69337 9.89839C9.70283 9.92792 9.66888 9.95241 9.64345 9.93435L9.44716 9.79515L9.25087 9.93435C9.22544 9.95237 9.19158 9.92792 9.20095 9.89839L9.27376 9.67017L9.07966 9.52794C9.05455 9.50949 9.06747 9.47 9.09872 9.46973L9.34001 9.46791L9.41634 9.24081C9.42619 9.2114 9.46814 9.2114 9.47798 9.24081Z" fill="#F5F5F5"/>
<path d="M9.47798 10.4283L9.55431 10.6554L9.7956 10.6572C9.82685 10.6575 9.83978 10.697 9.81466 10.7154L9.62056 10.8576L9.69337 11.0859C9.70283 11.1154 9.66888 11.1399 9.64345 11.1218L9.44716 10.9826L9.25087 11.1218C9.22544 11.1398 9.19158 11.1154 9.20095 11.0859L9.27376 10.8576L9.07966 10.7154C9.05455 10.697 9.06747 10.6575 9.09872 10.6572L9.34001 10.6554L9.41634 10.4283C9.42619 10.3989 9.46814 10.3989 9.47798 10.4283Z" fill="#F5F5F5"/>
<path d="M10.4038 6.28378L10.4801 6.51088L10.7214 6.5127C10.7526 6.51297 10.7656 6.5525 10.7404 6.57091L10.5463 6.71314L10.6192 6.94136C10.6286 6.97089 10.5947 6.99538 10.5692 6.97732L10.3729 6.83812L10.1767 6.97732C10.1512 6.99534 10.1174 6.97089 10.1267 6.94136L10.1995 6.71314L10.0054 6.57091C9.98033 6.55246 9.99326 6.51297 10.0245 6.5127L10.2658 6.51088L10.3421 6.28378C10.352 6.25437 10.3938 6.25437 10.4038 6.28378Z" fill="#F5F5F5"/>
<path d="M10.4038 7.47125L10.4801 7.69835L10.7214 7.70017C10.7526 7.70044 10.7656 7.73997 10.7404 7.75838L10.5463 7.90061L10.6192 8.12883C10.6286 8.15836 10.5947 8.18285 10.5692 8.16479L10.3729 8.02559L10.1767 8.16479C10.1512 8.18281 10.1174 8.15836 10.1267 8.12883L10.1995 7.90061L10.0054 7.75838C9.98033 7.73993 9.99326 7.70044 10.0245 7.70017L10.2658 7.69835L10.3421 7.47125C10.352 7.44187 10.3938 7.44187 10.4038 7.47125Z" fill="#F5F5F5"/>
<path d="M10.4038 8.65875L10.4801 8.88585L10.7214 8.88767C10.7526 8.88794 10.7656 8.92747 10.7404 8.94588L10.5463 9.08811L10.6192 9.31633C10.6286 9.34586 10.5947 9.37035 10.5692 9.35229L10.3729 9.21309L10.1767 9.35229C10.1512 9.37031 10.1174 9.34586 10.1267 9.31633L10.1995 9.08811L10.0054 8.94588C9.98033 8.92743 9.99326 8.88794 10.0245 8.88767L10.2658 8.88585L10.3421 8.65875C10.352 8.62937 10.3938 8.62937 10.4038 8.65875Z" fill="#F5F5F5"/>
<path d="M10.4038 9.84628L10.4801 10.0734L10.7214 10.0752C10.7526 10.0755 10.7656 10.115 10.7404 10.1334L10.5463 10.2756L10.6192 10.5039C10.6286 10.5334 10.5947 10.5579 10.5692 10.5398L10.3729 10.4006L10.1767 10.5398C10.1512 10.5578 10.1174 10.5334 10.1267 10.5039L10.1995 10.2756L10.0054 10.1334C9.98033 10.115 9.99326 10.0755 10.0245 10.0752L10.2658 10.0734L10.3421 9.84628C10.352 9.81687 10.3938 9.81687 10.4038 9.84628Z" fill="#F5F5F5"/>
<path d="M10.4038 11.0377L10.4801 11.2648L10.7214 11.2666C10.7526 11.2669 10.7656 11.3064 10.7404 11.3248L10.5463 11.4671L10.6192 11.6953C10.6286 11.7248 10.5947 11.7493 10.5692 11.7313L10.3729 11.5921L10.1767 11.7313C10.1512 11.7493 10.1174 11.7248 10.1267 11.6953L10.1995 11.4671L10.0054 11.3248C9.98033 11.3064 9.99326 11.2669 10.0245 11.2666L10.2658 11.2648L10.3421 11.0377C10.352 11.0083 10.3938 11.0083 10.4038 11.0377Z" fill="#F5F5F5"/>
</svg>
