<svg width="32" height="32" viewBox="0 0 32 32" fill="none" xmlns="http://www.w3.org/2000/svg">
<g style="mix-blend-mode:multiply">
<path fill-rule="evenodd" clip-rule="evenodd" d="M12.9754 3.92501L12.0442 4.85763C11.7481 5.15157 11.3426 5.31878 10.921 5.31878H9.58611C7.23039 5.31878 5.31957 7.23024 5.31957 9.5867V10.9191C5.31957 11.3415 5.15231 11.7463 4.85311 12.0476L3.91201 12.9899C2.24712 14.6624 2.25471 17.3648 3.92636 19.0271L4.8558 19.9579C5.15185 20.2546 5.31957 20.6605 5.31957 21.0811V22.4161C5.31957 24.7725 7.23033 26.6827 9.58611 26.6827H10.921C11.3414 26.6827 11.7473 26.8504 12.0482 27.1491L12.9892 28.0903C14.6636 29.7552 17.366 29.7476 19.0269 28.0754L19.9571 27.1465C20.2548 26.8502 20.6601 26.6827 21.0815 26.6827H22.4151C24.7719 26.6827 26.683 24.7728 26.683 22.4161V21.0811C26.683 20.6594 26.8502 20.2538 27.1459 19.9574L28.0905 19.0128C29.7549 17.3389 29.7467 14.6386 28.0767 12.9761L27.1448 12.0442C26.8497 11.7471 26.683 11.3426 26.683 10.9191V9.5867C26.683 7.22995 24.7719 5.31878 22.4151 5.31878H21.0815C20.659 5.31878 20.254 5.1518 19.9555 4.85473L19.0099 3.91036C17.3399 2.24791 14.6379 2.25492 12.9754 3.92501ZM16.9984 5.68394L17.1833 5.85182L18.0721 6.74255C18.8728 7.53955 19.9543 7.98544 21.0815 7.98544H22.4151C23.2991 7.98544 24.0163 8.70269 24.0163 9.5867V10.9191C24.0163 12.0466 24.4615 13.1265 25.2558 13.9265L26.1933 14.8639C26.8225 15.4903 26.8255 16.503 26.1932 17.1388L25.2592 18.0729C24.4629 18.8711 24.0163 19.9543 24.0163 21.0811V22.4161C24.0163 23.2996 23.2995 24.016 22.4151 24.016H21.0815C19.9547 24.016 18.8731 24.463 18.0743 25.258L17.1387 26.1923C16.5542 26.7808 15.6327 26.8225 15.0026 26.3184L14.869 26.1988L13.9305 25.2602C13.1273 24.4627 12.0463 24.016 10.921 24.016H9.58611C8.70292 24.016 7.98623 23.2995 7.98623 22.4161V21.0811C7.98623 19.9547 7.53863 18.8714 6.74321 18.074L5.80999 17.1395C5.22154 16.5543 5.17984 15.6327 5.68351 15.0035L5.80933 14.8639L6.74272 13.9292C7.54001 13.1262 7.98623 12.0463 7.98623 10.9191V9.5867C7.98623 8.7028 8.70335 7.98544 9.58611 7.98544H10.921C12.0467 7.98544 13.1276 7.53978 13.9271 6.74589L14.8639 5.80779C15.4474 5.22161 16.3692 5.18025 16.9984 5.68394Z" fill="#EA5A43"/>
<g opacity="0.5">
<path fill-rule="evenodd" clip-rule="evenodd" d="M19.2618 12.2241C19.8745 11.8156 20.7024 11.9812 21.1108 12.5939C21.4901 13.1628 21.3745 13.9172 20.8654 14.3492L20.741 14.4429L12.741 19.7762C12.1283 20.1847 11.3005 20.0191 10.892 19.4064C10.5127 18.8375 10.6284 18.083 11.1374 17.6511L11.2618 17.5574L19.2618 12.2241ZM18.6681 20.0001C18.3126 20.0001 17.9748 19.857 17.7259 19.6064C17.6014 19.4811 17.5126 19.3201 17.4414 19.159C17.3703 18.9979 17.3348 18.8386 17.3348 18.6579C17.3348 18.4789 17.3703 18.2999 17.4414 18.1388C17.5126 17.9778 17.6014 17.8346 17.7259 17.7093C18.2237 17.2082 19.1126 17.2082 19.6103 17.7093C19.7348 17.8346 19.8414 17.9778 19.9126 18.1388C19.9659 18.2999 20.0014 18.4789 20.0014 18.6579C20.0014 18.8386 19.9659 18.9979 19.9126 19.159C19.8414 19.3201 19.7348 19.4811 19.6103 19.6064C19.3614 19.857 19.0237 20.0001 18.6681 20.0001ZM12.837 14.5577C12.997 14.6292 13.157 14.6668 13.3348 14.6668C13.5126 14.6668 13.6904 14.6292 13.8504 14.5577C14.0104 14.4861 14.1526 14.3985 14.2771 14.2732C14.4014 14.1301 14.5081 13.987 14.5792 13.826C14.6503 13.6633 14.6681 13.5041 14.6681 13.3252C14.6681 12.9674 14.5259 12.6258 14.2771 12.3771C13.7793 11.8745 12.9081 11.8745 12.3926 12.3771C12.2681 12.4845 12.1792 12.6454 12.1081 12.8064C12.037 12.9674 12.0014 13.1445 12.0014 13.3252C12.0014 13.5041 12.037 13.6633 12.1081 13.826C12.1792 13.987 12.2681 14.1301 12.3926 14.2732C12.517 14.3985 12.677 14.4861 12.837 14.5577Z" fill="#EA5A43"/>
</g>
</g>
</svg>
