<svg width="151" height="40" viewBox="0 0 151 40" fill="none" xmlns="http://www.w3.org/2000/svg">
<g clip-path="url(#clip0_6075_26582)">
<g clip-path="url(#clip1_6075_26582)">
<path fill-rule="evenodd" clip-rule="evenodd" d="M21.086 35.4766C21.0913 35.4702 21.0998 35.4673 21.1045 35.46L22.5326 33.1217L22.5417 36.4417L21.086 35.4766ZM19.2507 32.1788L22.2469 32.6476L20.9095 34.8708L19.2507 32.1788ZM15.6366 31.8654L18.6493 32.0953L20.4684 35.0677L15.6366 31.8654ZM14.4174 25.9483L17.3007 27.9246L15.3553 30.9622L14.4174 25.9483ZM11.9192 26.9478L13.9131 25.8101L14.8249 30.7028L11.9192 26.9478ZM7.74319 26.6344L11.4467 27.0927L14.6148 31.1883L7.74319 26.6344ZM4.63161 21.6751L10.5685 22.1092L7.88765 25.4602L7.48046 25.9687L4.63161 21.6751ZM4.36976 24.3987C4.31975 24.3654 4.28709 24.3099 4.28327 24.2497L4.11145 21.725L7.07298 26.1901L4.36976 24.3987ZM3.4274 11.6738L6.91146 13.8611L4.06555 21.0535L3.4274 11.6738ZM3.00021 5.39626L6.76082 8.18379L3.3821 11.0069L3.00021 5.39626ZM2.84693 3.14327C2.84457 3.10676 2.84693 3.05214 2.89547 3.00014C2.93431 2.95925 2.99109 2.93354 3.04375 2.93354C3.07612 2.93354 3.1076 2.94289 3.14025 2.96159L4.88199 3.91238L2.95873 4.78547L2.84693 3.14327ZM6.59342 7.48858L3.37915 5.10678L5.22886 4.26757L6.59342 7.48858ZM6.96177 13.3505L3.73456 11.3256L6.90793 8.6751L6.96177 13.3505ZM10.4276 6.94031L7.26863 7.89344L5.79228 4.40953L10.4276 6.94031ZM12.0802 12.1827L7.60374 8.2793L10.5788 7.38226L12.0802 12.1827ZM13.5739 8.65787L12.5415 12.0933L11.0325 7.27038L13.5739 8.65787ZM14.4883 16.6524L12.7978 12.8919L13.7881 9.63349L14.4883 16.6524ZM14.7484 18.8598L16.5398 22.4737L11.5703 21.754L14.7484 18.8598ZM19.0948 22.1068L17.1103 22.474L15.731 19.4782L19.0948 22.1068ZM20.3752 28.035L17.9344 27.6763L19.3478 23.265L20.3752 28.035ZM22.5091 24.33L22.517 27.2455L19.8759 22.6355C19.8759 22.6355 22.3452 24.2754 22.5091 24.33ZM19.9362 23.6915L22.2075 27.6422L20.8589 28.0207L19.9362 23.6915ZM20.6691 28.8453L22.2211 32.1683L19.1592 31.6901L20.6691 28.8453ZM17.9509 28.1487L20.3084 28.496L18.852 31.2423L17.9509 28.1487ZM17.5446 28.4343L18.4702 31.613L15.6463 31.3983L17.5446 28.4343ZM17.2621 22.9577L19 22.6989L17.717 26.6814L17.2621 22.9577ZM16.8237 23.2618L17.3266 27.3819L14.4603 25.4184L16.8237 23.2618ZM13.7204 25.3731L11.7648 26.4892L11.3467 22.6268L13.7204 25.3731ZM11.6138 22.2295L16.4745 22.9338L14.0979 25.1029L11.6138 22.2295ZM11.0916 21.5185L9.33488 18.2961L14.245 18.6451L11.0916 21.5185ZM10.861 22.507L11.3043 26.6072L7.91472 26.1884L10.861 22.507ZM8.85061 18.377L10.6265 21.6479L4.84462 21.2267L8.85061 18.377ZM8.64113 17.9455L4.6931 20.7544L7.20626 14.4026L8.64113 17.9455ZM7.4331 13.498L7.3772 8.69146L12.0252 12.7458L7.4331 13.498ZM12.4688 13.4223L14.4489 18.1918L9.36724 17.831L12.4688 13.4223ZM8.983 17.5515L7.52577 13.9546L12.0319 13.2173L8.983 17.5515ZM22.5288 31.6676L21.026 28.4741L22.5191 28.0575L22.5288 31.6676ZM42.7152 2.14195L32.3846 7.81953C32.0869 7.99158 31.8941 8.29858 31.8691 8.63976L31.4593 17.6803C31.4361 18.0019 31.2631 18.2943 30.9915 18.4713L23.665 23.4122C23.4014 23.584 23.079 23.6249 22.7874 23.5358C22.6941 23.506 22.6032 23.4648 22.5194 23.4081L15.5554 18.5169C15.2953 18.3408 15.1294 18.0577 15.1038 17.746L14.6116 8.79457C14.5836 8.45602 14.3903 8.15253 14.094 7.98253L3.56363 2.23338C3.39504 2.13669 3.21704 2.09258 3.04375 2.09258C2.47534 2.09258 1.95929 2.56637 2.00254 3.19994L3.43859 24.3066C3.46036 24.6274 3.631 24.9198 3.9002 25.0982L22.5447 37.4542V37.4544H22.545L22.557 37.4626C22.7324 37.5786 22.9339 37.6367 23.1355 37.6367C23.3385 37.6367 23.5412 37.5777 23.7168 37.4606V37.4436L42.396 24.9691C42.6638 24.7904 42.8329 24.4988 42.8544 24.1793L44.2793 3.10618C44.3349 2.27836 43.4369 1.72453 42.7152 2.14195Z" fill="#EA5A43"/>
<path fill-rule="evenodd" clip-rule="evenodd" d="M137.888 30.9024H136.561V28.5463C136.561 28.412 136.53 28.3124 136.469 28.2468C136.409 28.1815 136.328 28.1485 136.23 28.1485C136.133 28.1485 136.055 28.1818 135.995 28.2478C135.936 28.3141 135.906 28.4133 135.906 28.5463V31.0393C135.906 31.1809 135.938 31.2832 136 31.3465C136.063 31.4094 136.165 31.4414 136.307 31.4414H137.888C137.995 31.4414 138.076 31.4168 138.132 31.3674C138.188 31.3181 138.216 31.2538 138.216 31.1739C138.216 31.0959 138.188 31.0313 138.131 30.9797C138.075 30.928 137.993 30.9024 137.888 30.9024Z" fill="#6B6B6B"/>
<path fill-rule="evenodd" clip-rule="evenodd" d="M134.097 30.1335C134.006 30.1335 133.939 30.1605 133.898 30.2141C133.857 30.2677 133.822 30.3374 133.795 30.4227C133.728 30.6039 133.631 30.7412 133.5 30.8344C133.37 30.9284 133.211 30.9747 133.023 30.9747C132.85 30.9747 132.698 30.9337 132.569 30.8511C132.44 30.7688 132.34 30.6439 132.269 30.477C132.199 30.3097 132.163 30.1002 132.163 29.849C132.163 29.4718 132.243 29.181 132.403 28.9761C132.562 28.7715 132.776 28.6693 133.045 28.6693C133.214 28.6693 133.356 28.7092 133.472 28.7885C133.587 28.8681 133.687 28.9881 133.772 29.1487C133.824 29.2456 133.87 29.3142 133.912 29.3539C133.954 29.3935 134.017 29.4135 134.101 29.4135C134.176 29.4135 134.24 29.3849 134.293 29.3276C134.346 29.2699 134.372 29.2036 134.372 29.1287C134.372 28.9917 134.318 28.8465 134.209 28.6926C134.1 28.5387 133.944 28.4094 133.739 28.3051C133.535 28.2002 133.302 28.1482 133.041 28.1482C132.826 28.1482 132.624 28.1862 132.435 28.2631C132.245 28.3394 132.08 28.451 131.938 28.5976C131.798 28.7439 131.689 28.9201 131.614 29.1267C131.538 29.3326 131.5 29.5661 131.5 29.8266C131.5 29.9872 131.515 30.1388 131.545 30.2814C131.575 30.4243 131.62 30.5586 131.681 30.6845C131.741 30.8105 131.814 30.9241 131.899 31.0257C131.994 31.1376 132.099 31.2276 132.213 31.2962C132.327 31.3645 132.453 31.4151 132.593 31.4475C132.733 31.4798 132.888 31.4961 133.059 31.4961C133.283 31.4961 133.48 31.4598 133.649 31.3882C133.818 31.3159 133.957 31.2219 134.066 31.1063C134.174 30.9907 134.254 30.8731 134.305 30.7528C134.355 30.6329 134.381 30.5216 134.381 30.4183C134.381 30.3374 134.353 30.2697 134.298 30.2151C134.242 30.1608 134.174 30.1335 134.097 30.1335Z" fill="#6B6B6B"/>
<path fill-rule="evenodd" clip-rule="evenodd" d="M53.7697 30.7678C53.7211 30.8104 53.6641 30.8437 53.5978 30.8674C53.5319 30.8907 53.4679 30.9054 53.4063 30.9114C53.3443 30.9173 53.259 30.9203 53.1504 30.9203H52.6543V28.7228H53.0864C53.2863 28.7228 53.4569 28.7445 53.5978 28.7881C53.7391 28.8315 53.8577 28.9324 53.954 29.0916C54.0499 29.2506 54.0982 29.4898 54.0982 29.8093C54.0982 30.2627 53.9886 30.5822 53.7697 30.7678ZM53.825 28.2657C53.6661 28.2244 53.4759 28.2041 53.254 28.2041H52.4011C52.2599 28.2041 52.1579 28.2354 52.0946 28.2987C52.0313 28.362 52 28.4643 52 28.6059V30.98C52 31.0843 52.009 31.1695 52.0273 31.2348C52.0456 31.3005 52.085 31.3511 52.1453 31.3871C52.2056 31.4234 52.2952 31.4414 52.4141 31.4414H53.2673C53.4156 31.4414 53.5488 31.4317 53.6671 31.4128C53.7854 31.3938 53.896 31.3604 53.9989 31.3135C54.1019 31.2662 54.1965 31.2039 54.2835 31.1256C54.3937 31.0243 54.484 30.909 54.5543 30.7801C54.6249 30.6512 54.6773 30.5066 54.7109 30.346C54.7449 30.1857 54.7619 30.0082 54.7619 29.8139C54.7619 29.2249 54.5933 28.7861 54.2568 28.4976C54.1275 28.3844 53.9836 28.3067 53.825 28.2657Z" fill="#6B6B6B"/>
<path fill-rule="evenodd" clip-rule="evenodd" d="M56.6367 28.1482C56.541 28.1482 56.4631 28.1815 56.4031 28.2475C56.3428 28.3138 56.3125 28.4131 56.3125 28.5457V31.0966C56.3125 31.2289 56.3432 31.3288 56.4041 31.3955C56.4651 31.4624 56.5427 31.4961 56.6367 31.4961C56.7353 31.4961 56.8149 31.4628 56.8759 31.3968C56.9368 31.3305 56.9675 31.2302 56.9675 31.0966V28.5457C56.9675 28.4117 56.9368 28.3118 56.8759 28.2465C56.8149 28.1812 56.7353 28.1482 56.6367 28.1482Z" fill="#6B6B6B"/>
<path fill-rule="evenodd" clip-rule="evenodd" d="M61.3839 29.765C61.3209 29.7487 61.2436 29.7407 61.1523 29.7407H60.4097C60.3201 29.7407 60.2491 29.764 60.1968 29.8113C60.1449 29.8583 60.1185 29.9179 60.1185 29.9902C60.1185 30.0782 60.1499 30.1411 60.2122 30.1778C60.2748 30.2148 60.3671 30.2331 60.4887 30.2331H60.9957V30.7585C60.8591 30.8321 60.7246 30.8891 60.5916 30.9287C60.4584 30.9684 60.3161 30.9884 60.1648 30.9884C59.8533 30.9884 59.6105 30.8861 59.4362 30.6815C59.2623 30.477 59.175 30.1845 59.175 29.8047C59.175 29.6294 59.1977 29.4695 59.2423 29.3256C59.2873 29.181 59.3519 29.0594 59.4362 28.9598C59.5209 28.8605 59.6225 28.7849 59.7417 28.7322C59.8607 28.6802 59.9959 28.6539 60.1472 28.6539C60.2941 28.6539 60.415 28.6759 60.5097 28.7202C60.6046 28.7645 60.6799 28.8188 60.7359 28.8835C60.7915 28.9484 60.8598 29.0441 60.9408 29.171C60.9701 29.2106 61.0064 29.2416 61.05 29.2636C61.093 29.2859 61.1383 29.2966 61.1853 29.2966C61.2706 29.2966 61.3439 29.2676 61.4049 29.2093C61.4658 29.1513 61.4961 29.081 61.4961 28.9984C61.4961 28.9221 61.4698 28.8345 61.4169 28.7356C61.3639 28.6369 61.2856 28.5437 61.181 28.455C61.0767 28.3671 60.9408 28.2938 60.7732 28.2355C60.6056 28.1772 60.413 28.1482 60.1958 28.1482C59.9313 28.1482 59.6948 28.1872 59.4859 28.2641C59.2773 28.3418 59.1004 28.453 58.9545 28.5986C58.8092 28.7445 58.699 28.9221 58.624 29.131C58.549 29.3402 58.5117 29.5704 58.5117 29.8223C58.5117 30.0782 58.5504 30.3104 58.6273 30.5179C58.7046 30.7255 58.8152 30.9021 58.9591 31.048C59.1031 31.1936 59.2773 31.3049 59.4815 31.3815C59.6858 31.4578 59.9123 31.4961 60.1605 31.4961C60.3734 31.4961 60.5706 31.4721 60.7512 31.4235C60.9321 31.3748 61.12 31.2975 61.3156 31.1913C61.3832 31.1549 61.4385 31.1166 61.4818 31.077C61.5251 31.0367 61.5551 30.9924 61.5711 30.9431C61.5874 30.8937 61.5954 30.8278 61.5954 30.7452V30.1248C61.5954 30.0129 61.5761 29.9289 61.5368 29.873C61.4981 29.817 61.4468 29.781 61.3839 29.765Z" fill="#6B6B6B"/>
<path fill-rule="evenodd" clip-rule="evenodd" d="M63.5195 28.1482C63.4239 28.1482 63.3462 28.1815 63.2859 28.2475C63.2256 28.3138 63.1953 28.4131 63.1953 28.5457V31.0966C63.1953 31.2289 63.226 31.3288 63.2869 31.3955C63.3479 31.4624 63.4255 31.4961 63.5195 31.4961C63.6178 31.4961 63.6977 31.4628 63.7587 31.3968C63.8196 31.3305 63.8503 31.2302 63.8503 31.0966V28.5457C63.8503 28.4117 63.8196 28.3118 63.7587 28.2465C63.6977 28.1812 63.6178 28.1482 63.5195 28.1482Z" fill="#6B6B6B"/>
<path fill-rule="evenodd" clip-rule="evenodd" d="M67.6301 28.2035H65.5492C65.442 28.2035 65.36 28.2275 65.3037 28.2761C65.2471 28.3248 65.2188 28.3907 65.2188 28.4747C65.2188 28.556 65.2457 28.6213 65.3 28.6703C65.3543 28.7199 65.4376 28.7442 65.5492 28.7442H66.2632V31.0966C66.2632 31.2302 66.2938 31.3305 66.3548 31.3968C66.4158 31.4628 66.4947 31.4961 66.5917 31.4961C66.6873 31.4961 66.7653 31.4634 66.8256 31.3978C66.8859 31.3325 66.9159 31.2319 66.9159 31.0966V28.7442H67.6301C67.7418 28.7442 67.8254 28.7199 67.8813 28.6703C67.937 28.6213 67.965 28.556 67.965 28.4747C67.965 28.3937 67.9376 28.3284 67.8823 28.2785C67.8274 28.2285 67.7431 28.2035 67.6301 28.2035Z" fill="#6B6B6B"/>
<path fill-rule="evenodd" clip-rule="evenodd" d="M69.788 30.1755L70.2664 28.8392L70.7535 30.1755H69.788ZM70.8394 28.7599C70.7998 28.6556 70.7671 28.572 70.7415 28.5093C70.7158 28.4467 70.6838 28.3881 70.6465 28.3338C70.6089 28.2795 70.5596 28.2348 70.4989 28.1998C70.438 28.1655 70.362 28.1482 70.2707 28.1482C70.1811 28.1482 70.1058 28.1655 70.0448 28.1998C69.9839 28.2348 69.9345 28.2801 69.8972 28.3361C69.8596 28.3917 69.8243 28.462 69.7913 28.5467C69.7583 28.6313 69.73 28.7039 69.7063 28.7645L68.8798 30.8668C68.8461 30.9507 68.8218 31.016 68.8071 31.0633C68.7925 31.1106 68.7852 31.1559 68.7852 31.2002C68.7852 31.2769 68.8165 31.3452 68.8798 31.4055C68.9431 31.4658 69.0157 31.4961 69.098 31.4961C69.1949 31.4961 69.2649 31.4678 69.3075 31.4111C69.3502 31.3545 69.4015 31.2452 69.4618 31.0833L69.6161 30.6682H70.9297L71.0843 31.0743C71.1046 31.1246 71.1293 31.1819 71.1579 31.2479C71.1866 31.3132 71.2132 31.3618 71.2385 31.3935C71.2632 31.4251 71.2942 31.4501 71.3308 31.4684C71.3678 31.4871 71.4118 31.4961 71.4631 31.4961C71.5514 31.4961 71.6267 31.4648 71.6893 31.4025C71.7516 31.3395 71.7829 31.2709 71.7829 31.1959C71.7829 31.124 71.7499 31.008 71.6836 30.8488L70.8394 28.7599Z" fill="#6B6B6B"/>
<path fill-rule="evenodd" clip-rule="evenodd" d="M75.1769 30.9024H73.85V28.5463C73.85 28.412 73.8193 28.3124 73.7583 28.2468C73.6974 28.1815 73.6178 28.1485 73.5191 28.1485C73.4222 28.1485 73.3442 28.1818 73.2846 28.2478C73.225 28.3141 73.1953 28.4133 73.1953 28.5463V31.0393C73.1953 31.1809 73.2266 31.2832 73.2889 31.3465C73.3516 31.4094 73.4538 31.4414 73.5964 31.4414H75.1769C75.2842 31.4414 75.3655 31.4168 75.4215 31.3674C75.4774 31.3181 75.5051 31.2538 75.5051 31.1739C75.5051 31.0959 75.4768 31.0313 75.4205 30.9797C75.3638 30.928 75.2825 30.9024 75.1769 30.9024Z" fill="#6B6B6B"/>
<path fill-rule="evenodd" clip-rule="evenodd" d="M80.7346 30.7678C80.6859 30.8104 80.629 30.8437 80.5627 30.8674C80.4967 30.8907 80.4327 30.9054 80.3711 30.9114C80.3091 30.9173 80.2238 30.9203 80.1152 30.9203H79.6192V28.7228H80.0513C80.2512 28.7228 80.4217 28.7445 80.5627 28.7881C80.7036 28.8315 80.8225 28.9324 80.9188 29.0916C81.0148 29.2506 81.0631 29.4898 81.0631 29.8093C81.0631 30.2627 80.9535 30.5822 80.7346 30.7678ZM80.7899 28.2657C80.631 28.2244 80.4407 28.2041 80.2188 28.2041H79.366C79.2247 28.2041 79.1228 28.2354 79.0595 28.2987C78.9962 28.362 78.9648 28.4643 78.9648 28.6059V30.98C78.9648 31.0843 78.9738 31.1695 78.9922 31.2348C79.0105 31.3005 79.0498 31.3511 79.1101 31.3871C79.1704 31.4234 79.26 31.4414 79.379 31.4414H80.2322C80.3804 31.4414 80.5137 31.4317 80.632 31.4128C80.7502 31.3938 80.8608 31.3604 80.9638 31.3135C81.0667 31.2662 81.1614 31.2039 81.2483 31.1256C81.3586 31.0243 81.4489 30.909 81.5192 30.7801C81.5898 30.6512 81.6421 30.5066 81.6757 30.346C81.7097 30.1857 81.7267 30.0082 81.7267 29.8139C81.7267 29.2249 81.5581 28.7861 81.2217 28.4976C81.0924 28.3844 80.9485 28.3067 80.7899 28.2657Z" fill="#6B6B6B"/>
<path fill-rule="evenodd" clip-rule="evenodd" d="M85.4298 30.9203H83.9043V29.9992H85.2623C85.3636 29.9992 85.4385 29.9762 85.4872 29.9295C85.5355 29.8836 85.5598 29.8233 85.5598 29.7496C85.5598 29.6763 85.5351 29.617 85.4862 29.5721C85.4368 29.5271 85.3622 29.5044 85.2623 29.5044H83.9043V28.7095H85.3792C85.4835 28.7095 85.5611 28.6865 85.6118 28.6399C85.6624 28.5939 85.6877 28.5323 85.6877 28.4556C85.6877 28.3804 85.6624 28.3197 85.6118 28.2734C85.5611 28.2271 85.4835 28.2041 85.3792 28.2041H83.6511C83.5585 28.2041 83.4822 28.2174 83.4229 28.2448C83.3633 28.2721 83.3196 28.3154 83.292 28.375C83.264 28.4347 83.25 28.5116 83.25 28.6059V31.0393C83.25 31.1809 83.281 31.2832 83.3436 31.3465C83.4059 31.4098 83.5085 31.4414 83.6511 31.4414H85.4298C85.5328 31.4414 85.6104 31.4174 85.6624 31.3698C85.7144 31.3218 85.7407 31.2598 85.7407 31.1829C85.7407 31.1036 85.7144 31.0396 85.6624 30.992C85.6104 30.944 85.5328 30.9203 85.4298 30.9203Z" fill="#6B6B6B"/>
<path fill-rule="evenodd" clip-rule="evenodd" d="M89.6191 28.1482C89.5282 28.1482 89.4556 28.1795 89.4023 28.2418C89.3483 28.3048 89.3216 28.3984 89.3216 28.5237V30.4493L88.063 28.5413C88.0277 28.4854 87.9937 28.4317 87.9604 28.3797C87.9274 28.3284 87.8951 28.2865 87.8634 28.2541C87.8318 28.2218 87.7951 28.1962 87.7531 28.1768C87.7112 28.1575 87.6612 28.1482 87.6022 28.1482C87.5273 28.1482 87.4576 28.1689 87.393 28.2108C87.3284 28.2528 87.2817 28.3071 87.2541 28.3734C87.2304 28.4337 87.2188 28.5167 87.2188 28.6229V31.1206C87.2188 31.2429 87.2467 31.3358 87.3024 31.4001C87.3583 31.4641 87.4326 31.4961 87.5253 31.4961C87.6149 31.4961 87.6882 31.4644 87.7455 31.4011C87.8028 31.3378 87.8314 31.2446 87.8314 31.1206V29.2236L89.0591 31.1096C89.0944 31.1613 89.1297 31.2116 89.1651 31.2609C89.2004 31.3102 89.2384 31.3532 89.2797 31.3898C89.3206 31.4271 89.365 31.4538 89.4119 31.4708C89.4589 31.4874 89.5119 31.4961 89.5705 31.4961C89.8057 31.4961 89.9233 31.3542 89.9233 31.07V28.5237C89.9233 28.3984 89.8963 28.3048 89.8417 28.2418C89.7874 28.1795 89.7131 28.1482 89.6191 28.1482Z" fill="#6B6B6B"/>
<path fill-rule="evenodd" clip-rule="evenodd" d="M93.6848 28.2035H91.6039C91.4967 28.2035 91.4147 28.2275 91.3584 28.2761C91.3018 28.3248 91.2734 28.3907 91.2734 28.4747C91.2734 28.556 91.3004 28.6213 91.3551 28.6703C91.4094 28.7199 91.4923 28.7442 91.6039 28.7442H92.3182V31.0966C92.3182 31.2302 92.3485 31.3305 92.4095 31.3968C92.4705 31.4628 92.5498 31.4961 92.6467 31.4961C92.742 31.4961 92.82 31.4634 92.8803 31.3978C92.9406 31.3325 92.9705 31.2319 92.9705 31.0966V28.7442H93.6848C93.7964 28.7442 93.8801 28.7199 93.936 28.6703C93.992 28.6213 94.0197 28.556 94.0197 28.4747C94.0197 28.3937 93.9923 28.3284 93.9374 28.2785C93.8821 28.2285 93.7978 28.2035 93.6848 28.2035Z" fill="#6B6B6B"/>
<path fill-rule="evenodd" clip-rule="evenodd" d="M95.707 28.1482C95.6114 28.1482 95.5334 28.1815 95.4731 28.2475C95.4131 28.3138 95.3828 28.4131 95.3828 28.5457V31.0966C95.3828 31.2289 95.4135 31.3288 95.4744 31.3955C95.5354 31.4624 95.6127 31.4961 95.707 31.4961C95.8053 31.4961 95.8849 31.4628 95.9458 31.3968C96.0071 31.3305 96.0375 31.2302 96.0375 31.0966V28.5457C96.0375 28.4117 96.0071 28.3118 95.9458 28.2465C95.8849 28.1812 95.8053 28.1482 95.707 28.1482Z" fill="#6B6B6B"/>
<path fill-rule="evenodd" clip-rule="evenodd" d="M99.844 29.7757C99.7403 29.702 99.6147 29.6397 99.4672 29.5881C99.3192 29.5365 99.1543 29.4895 98.9721 29.4468C98.8268 29.4099 98.7222 29.3819 98.6592 29.3629C98.5959 29.3436 98.5336 29.3172 98.4717 29.2833C98.41 29.2496 98.3617 29.209 98.3264 29.1617C98.2911 29.115 98.2734 29.059 98.2734 28.9941C98.2734 28.8895 98.3251 28.7999 98.4287 28.7259C98.5323 28.6513 98.6686 28.6143 98.8375 28.6143C99.0201 28.6143 99.152 28.6483 99.2343 28.7169C99.3169 28.7852 99.3872 28.8805 99.4462 29.0031C99.4915 29.0884 99.5338 29.1497 99.5728 29.187C99.6117 29.225 99.6687 29.2436 99.7437 29.2436C99.826 29.2436 99.8946 29.2123 99.9499 29.1497C100.005 29.0874 100.032 29.0171 100.032 28.9388C100.032 28.8532 100.011 28.7659 99.9662 28.6759C99.9222 28.5863 99.8523 28.5003 99.757 28.4187C99.6614 28.3371 99.5411 28.2715 99.3965 28.2222C99.2516 28.1728 99.0804 28.1482 98.8818 28.1482C98.6336 28.1482 98.4174 28.1855 98.2338 28.2598C98.0499 28.3341 97.9096 28.4404 97.8127 28.5786C97.7157 28.7172 97.6671 28.8755 97.6671 29.0537C97.6671 29.241 97.7131 29.3969 97.805 29.5228C97.897 29.6487 98.0209 29.7483 98.1775 29.8213C98.3341 29.8939 98.5283 29.9576 98.7605 30.0122C98.9341 30.0519 99.0727 30.0892 99.1763 30.1248C99.2796 30.1601 99.3642 30.2114 99.4295 30.2784C99.4948 30.3454 99.5275 30.4327 99.5275 30.5399C99.5275 30.6755 99.4672 30.7885 99.3459 30.8791C99.2246 30.9694 99.067 31.0147 98.8728 31.0147C98.7319 31.0147 98.6179 30.992 98.5313 30.9474C98.4447 30.9024 98.3774 30.8454 98.3298 30.7761C98.2821 30.7072 98.2375 30.6209 98.1965 30.5179C98.1625 30.431 98.1219 30.3657 98.0739 30.3214C98.0262 30.2771 97.9679 30.2547 97.8986 30.2547C97.8134 30.2547 97.7434 30.2834 97.6881 30.34C97.6331 30.3967 97.6055 30.4646 97.6055 30.5446C97.6055 30.6815 97.6514 30.8224 97.7434 30.9674C97.8353 31.1123 97.9546 31.2282 98.1015 31.3152C98.3088 31.4358 98.5716 31.4961 98.8908 31.4961C99.1566 31.4961 99.3865 31.4521 99.5804 31.3638C99.7747 31.2752 99.9219 31.1533 100.023 30.997C100.123 30.8411 100.173 30.6652 100.173 30.4693C100.173 30.3061 100.144 30.1678 100.086 30.0552C100.028 29.9426 99.9476 29.8496 99.844 29.7757Z" fill="#6B6B6B"/>
<path fill-rule="evenodd" clip-rule="evenodd" d="M103.775 28.2035H101.694C101.587 28.2035 101.505 28.2275 101.448 28.2761C101.392 28.3248 101.363 28.3907 101.363 28.4747C101.363 28.556 101.391 28.6213 101.445 28.6703C101.499 28.7199 101.582 28.7442 101.694 28.7442H102.408V31.0966C102.408 31.2302 102.438 31.3305 102.499 31.3968C102.56 31.4628 102.64 31.4961 102.737 31.4961C102.832 31.4961 102.91 31.4634 102.97 31.3978C103.03 31.3325 103.06 31.2319 103.06 31.0966V28.7442H103.775C103.886 28.7442 103.97 28.7199 104.026 28.6703C104.082 28.6213 104.11 28.556 104.11 28.4747C104.11 28.3937 104.082 28.3284 104.027 28.2785C103.972 28.2285 103.888 28.2035 103.775 28.2035Z" fill="#6B6B6B"/>
<path fill-rule="evenodd" clip-rule="evenodd" d="M107.079 29.5451C106.972 29.5724 106.84 29.5861 106.682 29.5861H106.096V28.6959H106.7C106.925 28.6959 107.076 28.7122 107.152 28.7445C107.233 28.7785 107.296 28.8298 107.341 28.8981C107.387 28.9668 107.41 29.0457 107.41 29.1357C107.41 29.2503 107.381 29.3406 107.325 29.4059C107.268 29.4715 107.186 29.5178 107.079 29.5451ZM107.867 30.6382C107.784 30.5023 107.69 30.3737 107.584 30.2531C107.478 30.1325 107.367 30.0409 107.251 29.9792C107.528 29.9186 107.734 29.8163 107.869 29.6721C108.005 29.5278 108.073 29.3349 108.073 29.0937C108.073 28.9758 108.053 28.8642 108.013 28.7592C107.972 28.6536 107.913 28.5613 107.835 28.482C107.758 28.4021 107.668 28.3414 107.566 28.2984C107.483 28.2605 107.389 28.2348 107.284 28.2222C107.18 28.2098 107.054 28.2038 106.907 28.2038H105.843C105.702 28.2038 105.6 28.2351 105.536 28.2984C105.473 28.3617 105.441 28.464 105.441 28.6056V31.0966C105.441 31.2276 105.47 31.3272 105.528 31.3948C105.585 31.4624 105.666 31.4961 105.77 31.4961C105.867 31.4961 105.945 31.4641 106.006 31.3991C106.066 31.3345 106.096 31.2336 106.096 31.0966V30.0565H106.325C106.442 30.0565 106.538 30.0718 106.614 30.1028C106.69 30.1338 106.766 30.1911 106.84 30.2751C106.914 30.359 106.999 30.4813 107.093 30.6415L107.355 31.079C107.417 31.1819 107.465 31.2599 107.502 31.3132C107.537 31.3662 107.58 31.4098 107.63 31.4445C107.68 31.4791 107.742 31.4961 107.815 31.4961C107.877 31.4961 107.932 31.4841 107.978 31.4598C108.026 31.4358 108.063 31.4025 108.09 31.3605C108.117 31.3185 108.131 31.2762 108.131 31.2336C108.131 31.1923 108.108 31.117 108.061 31.0074C108.015 30.8977 107.95 30.7745 107.867 30.6382Z" fill="#6B6B6B"/>
<path fill-rule="evenodd" clip-rule="evenodd" d="M111.55 28.1482C111.497 28.1482 111.452 28.1575 111.415 28.1768C111.378 28.1962 111.345 28.2238 111.315 28.2598C111.285 28.2958 111.257 28.3344 111.233 28.3757C111.208 28.4171 111.177 28.4677 111.14 28.528L110.529 29.5108L109.925 28.528C109.833 28.3764 109.763 28.2751 109.717 28.2245C109.671 28.1735 109.603 28.1482 109.513 28.1482C109.428 28.1482 109.356 28.1755 109.298 28.2298C109.24 28.2841 109.211 28.3494 109.211 28.424C109.211 28.47 109.225 28.5237 109.254 28.5853C109.283 28.6473 109.332 28.7336 109.401 28.8438L110.19 30.0695V31.0966C110.19 31.2319 110.22 31.3325 110.28 31.3978C110.34 31.4634 110.419 31.4961 110.516 31.4961C110.612 31.4961 110.69 31.4628 110.752 31.3968C110.813 31.3305 110.844 31.2302 110.844 31.0966V30.0695L111.654 28.8262C111.721 28.7242 111.769 28.6449 111.797 28.5876C111.825 28.53 111.839 28.473 111.839 28.4154C111.839 28.3448 111.811 28.2825 111.756 28.2285C111.701 28.1748 111.632 28.1482 111.55 28.1482Z" fill="#6B6B6B"/>
<path fill-rule="evenodd" clip-rule="evenodd" d="M116.67 30.9487H115.967V30.0035H116.648C116.876 30.0035 117.047 30.0401 117.162 30.1138C117.276 30.1874 117.333 30.306 117.333 30.4696C117.333 30.7891 117.113 30.9487 116.67 30.9487ZM115.967 28.6959H116.498C116.736 28.6959 116.913 28.7228 117.029 28.7765C117.146 28.8305 117.204 28.9391 117.204 29.1023C117.204 29.1789 117.185 29.2482 117.149 29.3099C117.101 29.3968 117.034 29.4558 116.944 29.4864C116.856 29.5174 116.73 29.5331 116.567 29.5331H115.967V28.6959ZM117.36 29.7273C117.683 29.5774 117.845 29.3402 117.845 29.016C117.845 28.9221 117.83 28.8325 117.799 28.7482C117.768 28.6635 117.723 28.5859 117.664 28.516C117.606 28.446 117.538 28.388 117.461 28.3427C117.372 28.2884 117.27 28.2514 117.157 28.2324C117.044 28.2131 116.911 28.2038 116.756 28.2038H115.709C115.569 28.2038 115.469 28.2348 115.406 28.2974C115.344 28.3597 115.312 28.4626 115.312 28.6056V31.039C115.312 31.1789 115.343 31.2808 115.404 31.3448C115.465 31.4091 115.566 31.4414 115.709 31.4414H116.696C116.867 31.4414 117.016 31.4327 117.144 31.4154C117.272 31.3991 117.385 31.3698 117.483 31.3285C117.641 31.2595 117.766 31.1522 117.858 31.0073C117.951 30.862 117.997 30.6991 117.997 30.5179C117.997 30.1264 117.785 29.8629 117.36 29.7273Z" fill="#6B6B6B"/>
<path fill-rule="evenodd" clip-rule="evenodd" d="M121.593 28.1482C121.54 28.1482 121.495 28.1575 121.458 28.1768C121.421 28.1962 121.388 28.2238 121.358 28.2598C121.328 28.2958 121.3 28.3344 121.275 28.3757C121.251 28.4171 121.22 28.4677 121.183 28.528L120.572 29.5108L119.968 28.528C119.876 28.3764 119.806 28.2751 119.76 28.2245C119.714 28.1735 119.645 28.1482 119.556 28.1482C119.471 28.1482 119.399 28.1755 119.341 28.2298C119.283 28.2841 119.254 28.3494 119.254 28.424C119.254 28.47 119.268 28.5237 119.297 28.5853C119.326 28.6473 119.375 28.7336 119.443 28.8438L120.233 30.0695V31.0966C120.233 31.2319 120.263 31.3325 120.323 31.3978C120.383 31.4634 120.462 31.4961 120.559 31.4961C120.654 31.4961 120.733 31.4628 120.795 31.3968C120.856 31.3305 120.887 31.2302 120.887 31.0966V30.0695L121.697 28.8262C121.764 28.7242 121.812 28.6449 121.84 28.5876C121.868 28.53 121.882 28.473 121.882 28.4154C121.882 28.3448 121.854 28.2825 121.799 28.2285C121.744 28.1748 121.675 28.1482 121.593 28.1482Z" fill="#6B6B6B"/>
<path fill-rule="evenodd" clip-rule="evenodd" d="M126.128 30.1755L126.606 28.8392L127.093 30.1755H126.128ZM127.179 28.7599C127.14 28.6556 127.107 28.572 127.081 28.5093C127.055 28.4467 127.024 28.3881 126.986 28.3338C126.949 28.2795 126.899 28.2348 126.839 28.1998C126.778 28.1655 126.702 28.1482 126.611 28.1482C126.521 28.1482 126.446 28.1655 126.385 28.1998C126.324 28.2348 126.274 28.2801 126.237 28.3361C126.199 28.3917 126.164 28.462 126.131 28.5467C126.098 28.6313 126.07 28.7039 126.047 28.7645L125.22 30.8668C125.186 30.9507 125.162 31.016 125.147 31.0633C125.132 31.1106 125.125 31.1559 125.125 31.2002C125.125 31.2769 125.157 31.3452 125.22 31.4055C125.283 31.4658 125.356 31.4961 125.438 31.4961C125.535 31.4961 125.605 31.4678 125.647 31.4111C125.69 31.3545 125.741 31.2452 125.802 31.0833L125.956 30.6682H127.27L127.424 31.0743C127.444 31.1246 127.469 31.1819 127.498 31.2479C127.526 31.3132 127.553 31.3618 127.578 31.3935C127.603 31.4251 127.634 31.4501 127.671 31.4684C127.708 31.4871 127.752 31.4961 127.803 31.4961C127.891 31.4961 127.967 31.4648 128.029 31.4025C128.092 31.3395 128.123 31.2709 128.123 31.1959C128.123 31.124 128.09 31.008 128.023 30.8488L127.179 28.7599Z" fill="#6B6B6B"/>
<path fill-rule="evenodd" clip-rule="evenodd" d="M139.941 28.1482C139.846 28.1482 139.768 28.1815 139.708 28.2475C139.648 28.3138 139.617 28.4131 139.617 28.5457V31.0966C139.617 31.2289 139.648 31.3288 139.709 31.3955C139.77 31.4624 139.847 31.4961 139.941 31.4961C140.04 31.4961 140.12 31.4628 140.181 31.3968C140.242 31.3305 140.272 31.2302 140.272 31.0966V28.5457C140.272 28.4117 140.242 28.3118 140.181 28.2465C140.12 28.1812 140.04 28.1482 139.941 28.1482Z" fill="#6B6B6B"/>
<path fill-rule="evenodd" clip-rule="evenodd" d="M144.421 30.1335C144.33 30.1335 144.263 30.1605 144.222 30.2141C144.181 30.2677 144.147 30.3374 144.119 30.4227C144.053 30.6039 143.955 30.7412 143.824 30.8344C143.694 30.9284 143.535 30.9747 143.347 30.9747C143.174 30.9747 143.023 30.9337 142.893 30.8511C142.764 30.7688 142.664 30.6439 142.593 30.477C142.523 30.3097 142.488 30.1002 142.488 29.849C142.488 29.4718 142.567 29.181 142.727 28.9761C142.886 28.7715 143.101 28.6693 143.369 28.6693C143.538 28.6693 143.68 28.7092 143.796 28.7885C143.911 28.8681 144.011 28.9881 144.097 29.1487C144.148 29.2456 144.195 29.3142 144.237 29.3539C144.279 29.3935 144.342 29.4135 144.425 29.4135C144.5 29.4135 144.564 29.3849 144.617 29.3276C144.67 29.2699 144.696 29.2036 144.696 29.1287C144.696 28.9917 144.642 28.8465 144.533 28.6926C144.425 28.5387 144.268 28.4094 144.064 28.3051C143.859 28.2002 143.626 28.1482 143.365 28.1482C143.151 28.1482 142.948 28.1862 142.759 28.2631C142.569 28.3394 142.404 28.451 142.263 28.5976C142.122 28.7439 142.013 28.9201 141.938 29.1267C141.862 29.3326 141.824 29.5661 141.824 29.8266C141.824 29.9872 141.839 30.1388 141.87 30.2814C141.9 30.4243 141.944 30.5586 142.005 30.6845C142.065 30.8105 142.138 30.9241 142.223 31.0257C142.319 31.1376 142.423 31.2276 142.538 31.2962C142.651 31.3645 142.778 31.4151 142.917 31.4475C143.057 31.4798 143.212 31.4961 143.383 31.4961C143.608 31.4961 143.804 31.4598 143.973 31.3882C144.142 31.3159 144.281 31.2219 144.39 31.1063C144.498 30.9907 144.578 30.8731 144.629 30.7528C144.68 30.6329 144.705 30.5216 144.705 30.4183C144.705 30.3374 144.677 30.2697 144.621 30.2151C144.566 30.1608 144.498 30.1335 144.421 30.1335Z" fill="#6B6B6B"/>
<path fill-rule="evenodd" clip-rule="evenodd" d="M148.805 30.7895L147.888 29.4735L148.684 28.7179C148.783 28.6236 148.832 28.529 148.832 28.433C148.832 28.3534 148.803 28.2861 148.744 28.2308C148.687 28.1758 148.611 28.1482 148.517 28.1482C148.445 28.1482 148.387 28.1635 148.343 28.1945C148.3 28.2255 148.248 28.2735 148.186 28.3384L146.901 29.6811V28.546C146.901 28.4117 146.87 28.3118 146.809 28.2465C146.748 28.1812 146.669 28.1482 146.57 28.1482C146.47 28.1482 146.391 28.1815 146.333 28.2475C146.275 28.3138 146.246 28.4131 146.246 28.546V30.9527C146.246 31.056 146.248 31.1346 146.253 31.1893C146.257 31.2436 146.27 31.2915 146.29 31.3328C146.318 31.3828 146.358 31.4225 146.409 31.4521C146.461 31.4814 146.514 31.4961 146.57 31.4961C146.667 31.4961 146.746 31.4634 146.808 31.3978C146.87 31.3325 146.901 31.2319 146.901 31.0966V30.4273L147.436 29.9126L148.21 31.1053C148.241 31.1583 148.276 31.2172 148.316 31.2822C148.356 31.3468 148.404 31.3988 148.462 31.4375C148.519 31.4768 148.593 31.4961 148.684 31.4961C148.781 31.4961 148.858 31.4698 148.914 31.4168C148.971 31.3638 148.999 31.3012 148.999 31.2289C148.999 31.1643 148.983 31.0976 148.951 31.0293C148.919 30.9607 148.87 30.8808 148.805 30.7895Z" fill="#6B6B6B"/>
<path fill-rule="evenodd" clip-rule="evenodd" d="M55.6192 13.8015L53.6576 9.02306C53.4683 8.58263 52.9599 8.3794 52.5218 8.56997C52.0834 8.7602 51.8818 9.27193 52.0711 9.71303L53.9837 14.3656C54.1383 14.8197 54.6294 15.0615 55.0815 14.906C55.5329 14.7504 55.7735 14.2556 55.6192 13.8015Z" fill="#6B6B6B"/>
<path fill-rule="evenodd" clip-rule="evenodd" d="M116.426 20.2886H111.302V9.37003C111.302 8.88962 110.916 8.50049 110.438 8.50049C109.961 8.50049 109.574 8.88962 109.574 9.37003V21.1578C109.574 21.6382 109.961 22.0273 110.438 22.0273H116.426C116.903 22.0273 117.29 21.6382 117.29 21.1578C117.29 20.6777 116.903 20.2886 116.426 20.2886Z" fill="#6B6B6B"/>
<path fill-rule="evenodd" clip-rule="evenodd" d="M104.227 10.2396C104.704 10.2396 105.091 9.85011 105.091 9.37003C105.091 8.88961 104.704 8.50049 104.227 8.50049H98.2389C97.7621 8.50049 97.375 8.88961 97.375 9.37003V21.1578C97.375 21.6382 97.7621 22.0273 98.2389 22.0273H104.227C104.704 22.0273 105.091 21.6382 105.091 21.1578C105.091 20.6777 104.704 20.2886 104.227 20.2886H99.1034V16.1085H103.424C103.901 16.1085 104.288 15.719 104.288 15.2389C104.288 14.7585 103.901 14.3694 103.424 14.3694H99.1034V10.2396H104.227Z" fill="#6B6B6B"/>
<path fill-rule="evenodd" clip-rule="evenodd" d="M89.1012 15.2458L92.555 9.83934C92.8132 9.43589 92.6966 8.89751 92.2951 8.63798C91.8937 8.37812 91.3593 8.49505 91.1011 8.89917C91.1011 8.89917 89.6682 11.1423 88.0531 13.6703L88.0404 13.653L88.0357 13.661C86.4226 11.1367 84.9937 8.89917 84.9937 8.89917C84.7351 8.49505 84.2008 8.37812 83.7993 8.63798C83.3978 8.89751 83.2816 9.43589 83.5398 9.83934L87.0086 15.2701L83.5534 20.6853C83.2952 21.0897 83.4115 21.6285 83.813 21.8886C84.2147 22.1492 84.7491 22.0319 85.008 21.6271C85.008 21.6271 86.4446 19.3756 88.0627 16.8396C89.6809 19.3756 91.1178 21.6271 91.1178 21.6271C91.376 22.0319 91.9107 22.1492 92.3125 21.8886C92.7139 21.6285 92.8302 21.0897 92.5723 20.6853L89.1012 15.2458Z" fill="#6B6B6B"/>
<path fill-rule="evenodd" clip-rule="evenodd" d="M63.3926 8.57178C62.9542 8.38122 62.4458 8.58444 62.2566 9.02488L57.9575 19.0376C57.9575 19.0376 57.4065 17.7543 56.6992 16.1068L56.7052 16.1045C56.5149 15.6687 56.0039 15.4678 55.5634 15.6564C55.158 15.8296 54.9581 16.2717 55.077 16.6812L55.065 16.6855C56.1588 19.2332 57.1333 21.5026 57.1333 21.5026C57.2702 21.8215 57.5817 22.0273 57.9265 22.0273H57.9885C58.333 22.0273 58.6451 21.8215 58.7817 21.5026L63.8434 9.71484C64.0323 9.27374 63.8307 8.76201 63.3926 8.57178Z" fill="#6B6B6B"/>
<path fill-rule="evenodd" clip-rule="evenodd" d="M73.8823 20.2886C71.1287 20.2886 68.8886 18.0341 68.8886 15.2639C68.8886 12.4937 71.1287 10.2396 73.8823 10.2396C76.6358 10.2396 78.876 12.4937 78.876 15.2639C78.876 18.0341 76.6358 20.2886 73.8823 20.2886ZM73.8823 8.50049C70.1756 8.50049 67.1602 11.5346 67.1602 15.2639C67.1602 18.9933 70.1756 22.0273 73.8823 22.0273C77.589 22.0273 80.6044 18.9933 80.6044 15.2639C80.6044 11.5346 77.589 8.50049 73.8823 8.50049Z" fill="#6B6B6B"/>
<path d="M148.726 21.1548V21.1205C148.708 20.1793 148.692 18.965 148.692 17.7846C148.692 16.347 148.708 14.3937 148.726 13.6927V13.6581C148.726 13.1107 148.264 12.8369 147.819 12.8369C147.306 12.8369 146.878 13.145 146.895 13.7094C146.912 14.1715 146.912 14.2538 146.912 15.024C146.912 16.5809 146.895 19.7346 146.895 21.1548C146.895 21.7365 147.34 22.0273 147.802 22.0273C148.264 22.0273 148.726 21.7365 148.726 21.1548Z" fill="#6B6B6B"/>
<path d="M147.803 10.8789C148.538 10.8789 149.001 10.2799 149.001 9.66421C149.001 9.01389 148.419 8.5005 147.803 8.5005C147.324 8.5005 146.605 8.82599 146.605 9.66421C146.605 10.4511 147.136 10.8789 147.803 10.8789Z" fill="#6B6B6B"/>
<path d="M127.704 14.4207C128.648 13.8903 129.232 12.9028 129.232 11.7674C129.232 9.8581 127.783 8.52481 125.708 8.52481C123.446 8.52481 122.202 10.078 122.202 10.5924C122.202 10.9945 122.569 11.361 122.972 11.361C123.227 11.361 123.424 11.2564 123.558 11.0558C124.082 10.3155 124.8 9.94006 125.691 9.94006C127.596 9.94006 127.693 11.4473 127.693 11.7498C127.693 12.9381 126.921 13.7577 125.779 13.7877H125.146C124.742 13.7877 124.448 14.0962 124.448 14.522C124.448 14.8844 124.678 15.2739 125.182 15.2739H125.638C127.345 15.2739 128.325 16.2151 128.325 17.8552C128.325 19.3764 127.147 20.5241 125.586 20.5241C124.323 20.5241 123.466 20.074 122.813 19.0732C122.681 18.8507 122.444 18.7178 122.182 18.7178C121.794 18.7178 121.379 19.0406 121.379 19.5217C121.379 20.1054 122.663 22.0273 125.498 22.0273C128.058 22.0273 129.915 20.2799 129.915 17.8725C129.915 16.2457 129.099 14.9924 127.704 14.4207Z" fill="#E5573F"/>
<path d="M143.47 15.2293C143.47 11.6035 141.256 8.79666 137.23 8.53547C136.968 8.51781 136.445 8.50049 135.905 8.50049C133.743 8.50049 132.017 8.57045 131.878 10.9585C131.826 11.8997 131.773 13.9216 131.773 15.8393C131.773 17.3035 131.808 18.7154 131.86 19.5693C132.035 22.01 134.51 22.0273 135.905 22.0273C137.717 22.0273 143.47 22.01 143.47 15.2293ZM137.055 10.4005C139.722 10.4005 141.413 12.4227 141.413 15.2293C141.413 20.1623 137.735 20.1623 135.905 20.1623C134.458 20.1623 133.918 20.0227 133.83 19.2208C133.761 18.5585 133.726 17.2685 133.726 15.8912C133.726 14.0089 133.778 12.0043 133.83 11.2724C133.883 10.4005 134.824 10.3832 135.66 10.3832C136.305 10.3832 137.055 10.4005 137.055 10.4005Z" fill="#E5573F"/>
<path fill-rule="evenodd" clip-rule="evenodd" d="M24.3544 4.71365L30.7297 8.20018C31.3725 8.55158 31.3661 9.12118 30.7161 9.47258L24.2641 12.9591C23.6139 13.3105 22.5662 13.3105 21.9236 12.9591L15.5481 9.47258C14.9055 9.12118 14.912 8.55158 15.5622 8.20018L22.0137 4.71365C22.6639 4.36225 23.7119 4.36225 24.3544 4.71365Z" fill="#EA5A43"/>
</g>
</g>
<defs>
<clipPath id="clip0_6075_26582">
<rect width="151" height="40" fill="white"/>
</clipPath>
<clipPath id="clip1_6075_26582">
<rect width="147" height="36" fill="white" transform="translate(2 2)"/>
</clipPath>
</defs>
</svg>
