<svg width="43" height="36" viewBox="0 0 43 36" fill="none" xmlns="http://www.w3.org/2000/svg">
<path fill-rule="evenodd" clip-rule="evenodd" d="M19.086 33.4766C19.0913 33.4702 19.0998 33.4673 19.1045 33.46L20.5326 31.1217L20.5417 34.4417L19.086 33.4766ZM17.2507 30.1788L20.2469 30.6476L18.9095 32.8708L17.2507 30.1788ZM13.6366 29.8654L16.6493 30.0953L18.4684 33.0677L13.6366 29.8654ZM12.4174 23.9483L15.3007 25.9246L13.3553 28.9622L12.4174 23.9483ZM9.91924 24.9478L11.9131 23.8101L12.8249 28.7028L9.91924 24.9478ZM5.74319 24.6344L9.44673 25.0927L12.6148 29.1883L5.74319 24.6344ZM2.63161 19.6751L8.56851 20.1092L5.88765 23.4602L5.48046 23.9687L2.63161 19.6751ZM2.36976 22.3987C2.31975 22.3654 2.28709 22.3099 2.28327 22.2497L2.11145 19.725L5.07298 24.1901L2.36976 22.3987ZM1.4274 9.67382L4.91146 11.8611L2.06555 19.0535L1.4274 9.67382ZM1.00021 3.39626L4.76082 6.18379L1.3821 9.00695L1.00021 3.39626ZM0.846925 1.14327C0.844572 1.10676 0.846926 1.05214 0.895471 1.00014C0.934307 0.959248 0.991089 0.933544 1.04375 0.933544C1.07612 0.933544 1.1076 0.94289 1.14025 0.961586L2.88199 1.91238L0.958726 2.78547L0.846925 1.14327ZM4.59342 5.48858L1.37915 3.10678L3.22886 2.26757L4.59342 5.48858ZM4.96177 11.3505L1.73456 9.32563L4.90793 6.6751L4.96177 11.3505ZM8.42758 4.94031L5.26863 5.89344L3.79228 2.40953L8.42758 4.94031ZM10.0802 10.1827L5.60374 6.2793L8.57881 5.38226L10.0802 10.1827ZM11.5739 6.65787L10.5415 10.0933L9.03248 5.27038L11.5739 6.65787ZM12.4883 14.6524L10.7978 10.8919L11.7881 7.63349L12.4883 14.6524ZM12.7484 16.8598L14.5398 20.4737L9.5703 19.754L12.7484 16.8598ZM17.0948 20.1068L15.1103 20.474L13.731 17.4782L17.0948 20.1068ZM18.3752 26.035L15.9344 25.6763L17.3478 21.265L18.3752 26.035ZM20.5091 22.33L20.517 25.2455L17.8759 20.6355C17.8759 20.6355 20.3452 22.2754 20.5091 22.33ZM17.9362 21.6915L20.2075 25.6422L18.8589 26.0207L17.9362 21.6915ZM18.6691 26.8453L20.2211 30.1683L17.1592 29.6901L18.6691 26.8453ZM15.9509 26.1487L18.3084 26.496L16.852 29.2423L15.9509 26.1487ZM15.5446 26.4343L16.4701 29.613L13.6463 29.3983L15.5446 26.4343ZM15.2621 20.9577L17 20.6989L15.717 24.6814L15.2621 20.9577ZM14.8237 21.2618L15.3266 25.3819L12.4603 23.4184L14.8237 21.2618ZM11.7204 23.3731L9.76477 24.4892L9.3467 20.6268L11.7204 23.3731ZM9.61384 20.2295L14.4745 20.9338L12.0979 23.1029L9.61384 20.2295ZM9.09162 19.5185L7.33488 16.2961L12.245 16.6451L9.09162 19.5185ZM8.86096 20.507L9.30433 24.6072L5.91472 24.1884L8.86096 20.507ZM6.85061 16.377L8.62647 19.6479L2.84462 19.2267L6.85061 16.377ZM6.64113 15.9455L2.6931 18.7544L5.20626 12.4026L6.64113 15.9455ZM5.4331 11.498L5.3772 6.69146L10.0252 10.7458L5.4331 11.498ZM10.4688 11.4223L12.4489 16.1918L7.36724 15.831L10.4688 11.4223ZM6.983 15.5515L5.52577 11.9546L10.0319 11.2173L6.983 15.5515ZM20.5288 29.6676L19.026 26.4741L20.5191 26.0575L20.5288 29.6676ZM40.7152 0.141949L30.3846 5.81953C30.0869 5.99158 29.8941 6.29858 29.8691 6.63976L29.4593 15.6803C29.4361 16.0019 29.2631 16.2943 28.9915 16.4713L21.665 21.4122C21.4014 21.584 21.079 21.6249 20.7874 21.5358C20.6941 21.506 20.6032 21.4648 20.5194 21.4081L13.5554 16.5169C13.2953 16.3408 13.1294 16.0577 13.1038 15.746L12.6116 6.79457C12.5836 6.45602 12.3903 6.15253 12.094 5.98253L1.56363 0.233376C1.39504 0.136688 1.21704 0.0925827 1.04375 0.0925827C0.475336 0.0925827 -0.0407107 0.566372 0.00253837 1.19994L1.43859 22.3066C1.46036 22.6274 1.631 22.9198 1.9002 23.0982L20.5447 35.4542V35.4544H20.545L20.557 35.4626C20.7324 35.5786 20.9339 35.6367 21.1355 35.6367C21.3385 35.6367 21.5412 35.5777 21.7168 35.4606V35.4436L40.396 22.9691C40.6638 22.7904 40.8329 22.4988 40.8544 22.1793L42.2793 1.10617C42.3349 0.278358 41.4369 -0.275467 40.7152 0.141949Z" fill="#EA5A43"/>
</svg>
